<svg width="100" height="100" viewBox="0 0 100 100" fill="none" xmlns="http://www.w3.org/2000/svg">
<path d="M94.0001 67.9165L62.0418 14.9165C60.7495 12.8949 58.9691 11.2312 56.8646 10.0788C54.7602 8.92633 52.3994 8.32227 50.0001 8.32227C47.6008 8.32227 45.24 8.92633 43.1356 10.0788C41.0311 11.2312 39.2507 12.8949 37.9584 14.9165L6.00009 67.9165C4.87115 69.7984 4.25755 71.9444 4.22097 74.1386C4.1844 76.3328 4.72615 78.498 5.79176 80.4165C7.02376 82.576 8.80701 84.3696 10.9593 85.6141C13.1115 86.8586 15.5556 87.5093 18.0418 87.4998H81.9584C84.4282 87.5262 86.8613 86.9006 89.0121 85.6862C91.1629 84.4718 92.9553 82.7116 94.2084 80.5832C95.3053 78.6448 95.8644 76.4485 95.8278 74.2215C95.7911 71.9945 95.1601 69.8178 94.0001 67.9165ZM50.0001 70.8332C49.176 70.8332 48.3704 70.5888 47.6852 70.131C47 69.6731 46.466 69.0224 46.1506 68.261C45.8352 67.4997 45.7527 66.6619 45.9135 65.8536C46.0743 65.0454 46.4711 64.303 47.0538 63.7202C47.6365 63.1375 48.379 62.7407 49.1872 62.5799C49.9955 62.4191 50.8332 62.5017 51.5946 62.817C52.356 63.1324 53.0067 63.6664 53.4645 64.3516C53.9224 65.0368 54.1668 65.8424 54.1668 66.6665C54.1668 67.7716 53.7278 68.8314 52.9464 69.6128C52.165 70.3942 51.1052 70.8332 50.0001 70.8332ZM54.1668 54.1665C54.1668 55.2716 53.7278 56.3314 52.9464 57.1128C52.165 57.8942 51.1052 58.3332 50.0001 58.3332C48.895 58.3332 47.8352 57.8942 47.0538 57.1128C46.2724 56.3314 45.8334 55.2716 45.8334 54.1665V37.4999C45.8334 36.3948 46.2724 35.335 47.0538 34.5536C47.8352 33.7722 48.895 33.3332 50.0001 33.3332C51.1052 33.3332 52.165 33.7722 52.9464 34.5536C53.7278 35.335 54.1668 36.3948 54.1668 37.4999V54.1665Z" fill="#8F2D56"/>
</svg>
