<svg width="31" height="31" viewBox="0 0 31 31" fill="none" xmlns="http://www.w3.org/2000/svg">
<path d="M3.31689 23.9643C7.52104 30.2098 16.7873 31.6444 22.7074 28.1C26.4826 25.8397 30.0003 21.5811 30.0003 15.7788C30.0003 3.54224 18.6749 1.10035 15.8435 1.0105C13.1838 0.926102 10.7986 1.34811 9.15121 2.36081" stroke="#FFBC42" stroke-width="2" stroke-linecap="round"/>
<path d="M0.00632 27.2286C-0.0556741 27.7774 0.338955 28.2725 0.88775 28.3345C1.43654 28.3965 1.93169 28.0019 1.99368 27.4531L0.00632 27.2286ZM1.68639 21.2646L1.90966 20.2899L0.81838 20.0399L0.692711 21.1524L1.68639 21.2646ZM7.72643 23.6741C8.26477 23.7974 8.80115 23.4609 8.92446 22.9226C9.04777 22.3842 8.71132 21.8479 8.17298 21.7245L7.72643 23.6741ZM1.99368 27.4531L2.68007 21.3769L0.692711 21.1524L0.00632 27.2286L1.99368 27.4531ZM1.46312 22.2394L7.72643 23.6741L8.17298 21.7245L1.90966 20.2899L1.46312 22.2394Z" fill="#FFBC42"/>
</svg>
