<svg width="50" height="50" viewBox="0 0 50 50" fill="none" xmlns="http://www.w3.org/2000/svg">
<path d="M16.8753 27.7917L22.7711 21.8959L8.14615 7.2917C6.58542 8.85693 5.70898 10.9771 5.70898 13.1875C5.70898 15.3979 6.58542 17.5181 8.14615 19.0834L16.8753 27.7917ZM31.0003 24.0209C34.1878 25.5 38.667 24.4584 41.9795 21.1459C45.9586 17.1667 46.7295 11.4584 43.667 8.39587C40.6253 5.3542 34.917 6.1042 30.917 10.0834C27.6045 13.3959 26.5628 17.875 28.042 21.0625L7.70865 41.3959L10.6461 44.3334L25.0003 30.0209L39.3336 44.3542L42.2712 41.4167L27.9378 27.0834L31.0003 24.0209Z" fill="#FFBC42"/>
</svg>
