<svg width="60" height="60" viewBox="0 0 60 60" fill="none" xmlns="http://www.w3.org/2000/svg">
<path d="M30 5.40562C38.0102 5.40562 38.959 5.43609 42.1223 5.58023C45.0473 5.71383 46.6359 6.2025 47.6932 6.61336C49.0934 7.15758 50.0927 7.80773 51.1425 8.8575C52.1925 9.90727 52.8424 10.9066 53.3866 12.3068C53.7975 13.3641 54.2862 14.9527 54.4198 17.8774C54.5639 21.041 54.5944 21.9898 54.5944 30C54.5944 38.0105 54.5639 38.9592 54.4198 42.1226C54.2862 45.0476 53.7975 46.6359 53.3866 47.6932C52.8424 49.0934 52.1923 50.093 51.1425 51.1427C50.0927 52.1925 49.0934 52.8427 47.6932 53.3866C46.6359 53.7975 45.0473 54.2864 42.1223 54.4198C38.9595 54.5641 38.0107 54.5946 30 54.5946C21.9891 54.5946 21.0403 54.5641 17.8774 54.4198C14.9524 54.2862 13.3641 53.7975 12.3068 53.3866C10.9066 52.8427 9.90703 52.1925 8.85727 51.1427C7.8075 50.0927 7.15734 49.0934 6.61336 47.6932C6.2025 46.6362 5.71359 45.0476 5.58023 42.1226C5.43586 38.9592 5.40539 38.0105 5.40539 30C5.40539 21.9898 5.43586 21.041 5.58023 17.8777C5.71383 14.9527 6.2025 13.3641 6.61336 12.3068C7.15734 10.9066 7.8075 9.90727 8.85727 8.8575C9.90727 7.8075 10.9066 7.15758 12.3068 6.61336C13.3638 6.2025 14.9524 5.71383 17.8774 5.58023C21.0408 5.43609 21.9895 5.40562 30 5.40562ZM30 0C21.8524 0 20.8308 0.0344531 17.6311 0.180469C14.4377 0.32625 12.2569 0.833437 10.3488 1.575C8.37586 2.34164 6.70289 3.3675 5.03508 5.03531C3.36727 6.70312 2.34164 8.37609 1.575 10.3488C0.833203 12.2571 0.32625 14.438 0.180469 17.6311C0.0344531 20.8308 0 21.8524 0 30C0 38.1476 0.0344531 39.1692 0.180469 42.3689C0.32625 45.5623 0.833203 47.7431 1.575 49.6512C2.34141 51.6239 3.36727 53.2971 5.03508 54.9649C6.70289 56.6327 8.37586 57.6584 10.3488 58.425C12.2571 59.1668 14.4377 59.6737 17.6309 59.8195C20.8308 59.9655 21.8524 60 30 60C38.1476 60 39.1692 59.9655 42.3689 59.8195C45.562 59.6737 47.7429 59.1668 49.6509 58.425C51.6239 57.6586 53.2969 56.6327 54.9647 54.9649C56.6325 53.2971 57.6584 51.6241 58.425 49.6512C59.1666 47.7429 59.6737 45.5623 59.8195 42.3691C59.9655 39.1692 60 38.1476 60 30C60 21.8524 59.9655 20.8308 59.8195 17.6311C59.6737 14.438 59.1666 12.2571 58.425 10.3491C57.6584 8.37609 56.6325 6.70312 54.9647 5.03531C53.2969 3.3675 51.6239 2.34141 49.6512 1.575C47.7429 0.833437 45.562 0.32625 42.3689 0.180469C39.1692 0.0344531 38.1476 0 30 0ZM30 14.5945C21.4917 14.5945 14.5945 21.4922 14.5945 30C14.5945 38.5083 21.4917 45.4055 30 45.4055C38.508 45.4055 45.4055 38.5083 45.4055 30C45.4055 21.492 38.508 14.5945 30 14.5945ZM30 40.0001C24.4772 40.0001 19.9999 35.5228 19.9999 30C19.9999 24.4772 24.4772 19.9999 30 19.9999C35.5228 19.9999 40.0001 24.4772 40.0001 30C40.0001 35.5228 35.5228 40.0001 30 40.0001ZM49.6139 13.9859C49.6139 15.9743 48.0023 17.5859 46.0139 17.5859C44.0257 17.5859 42.4139 15.9743 42.4139 13.9859C42.4139 11.9977 44.0257 10.3859 46.0139 10.3859C48.0023 10.3859 49.6139 11.9977 49.6139 13.9859Z" fill="#8F2D56"/>
</svg>
