<svg id="Capa_1" data-name="Capa 1" xmlns="http://www.w3.org/2000/svg" viewBox="0 0 212.24 212.24"><defs><style>.cls-1{fill:#8f2d56;}.cls-2{fill:#ffbc42;}</style></defs><title>loader-icon</title><circle class="cls-1" cx="106.12" cy="106.12" r="106.12"/><path class="cls-2" d="M988.44,291.69H982.8l-14.92-1.21-9.27-.81-15.53-1.41s-23-2.77-41.73-1.21a11.54,11.54,0,0,0-7.66,4.24,6,6,0,0,1-4,2c-1.66.13-8.26.2-8.26.2l-35.49-1.21s-1.41-.8,0-1.61l34.88-.2s1-1.21,0-1.81-34.88-1.42-34.88-1.42-1.61-.8-.2-1.41l34.48-.8s1.41-.61.2-2l-34.68-.6s-1.41-.81,0-1.82l34.48-1.21s1.21-.4.4-1.81l-34.68-.2s-1.61-.81-.2-1.62c0,0,40.52-1.41,40.93-1.41s4.63-.4,6.45,2,6,4.33,7.86,4.64c2.42.4,6.85,1.2,30.24-.21,25.43-1.53,47.78-4,47.78-4l6.45-.4s11.89-1.61,12.5,6.85S988.44,291.69,988.44,291.69Z" transform="translate(-815.19 -233.07)"/><path class="cls-2" d="M870.48,385.71l12.92-14.26L905,347.34c2.17-2.46,11.75-14.26,11.75-14.26a1.7,1.7,0,0,1-1.15-2.35l2.12-2.79s1.13-.32,1.17,0,3.23-.77.15-7.53L929.41,306s13-17.44,18.87-23.24c1.06-1,14.85-14.89,25.18-17.26,5.34-1.22,3.33,4.89,3.33,4.89L926.87,334s.93.71.36,1.45l-2.12,2.79a1.44,1.44,0,0,1-1.31.18l-.89-.38-10.35,14.74s-14.28,20.81-17.34,25.87c-3.41,5.63-11.59,17.91-11.59,17.91s-6.33,9.87-7.09,10.47-6.93,9.12-14,3.41c-2.55-2.05-6.43-5.47-.27-14.31C865.44,391.56,870.48,385.71,870.48,385.71Z" transform="translate(-815.19 -233.07)"/><path class="cls-2" d="M939.29,392.68s3.23.2,4.84-1.61l2-3.23c.8-1.81,5.84-5,5.84-5a30,30,0,0,1,10.89-3.63,57.66,57.66,0,0,1,15.52.61c5.65,1,13.51,5,15.73,7.66s4,5.85,3.83,8.06-1.41,5.85-3,7.26-2.82,4-10.48,7.06-19,2.62-19,2.62l-7.06-1a32,32,0,0,1-6.45-3,24.28,24.28,0,0,1-5.64-4.63s-2.62-4.64-4.44-4.84-8.87-.61-8.87-.61l-18.75.61-12.09.81-30.44,3-10.69.81-6.25.2s-8.26,0-9.67-6,2.62-8.47,2.62-8.47a13.42,13.42,0,0,1,6.65-2l21,1.61,24.39,2.42,11.29,1,12.7.6Z" transform="translate(-815.19 -233.07)"/></svg>