<svg width="34" height="34" viewBox="0 0 34 34" fill="none" xmlns="http://www.w3.org/2000/svg">
<path d="M20.9262 19.4678L25.7573 24.2989L24.2989 25.7573L19.4678 20.9262V20.1514L19.1943 19.878C18.0093 20.8806 16.642 21.382 15.0924 21.382C13.3302 21.382 11.8337 20.7667 10.6032 19.5361C9.37261 18.3056 8.75732 16.8168 8.75732 15.0697C8.75732 13.3226 9.37261 11.8337 10.6032 10.6032C11.8337 9.37261 13.3226 8.75732 15.0697 8.75732C16.8168 8.75732 18.3056 9.37261 19.5361 10.6032C20.7667 11.8337 21.382 13.3302 21.382 15.0924C21.382 16.642 20.8806 18.0093 19.878 19.1943L20.1514 19.4678H20.9262ZM15.0924 19.4678C16.3078 19.4678 17.3409 19.0424 18.1916 18.1916C19.0424 17.3409 19.4678 16.3078 19.4678 15.0924C19.4678 13.8771 19.0424 12.844 18.1916 11.9932C17.3409 11.1425 16.3078 10.7171 15.0924 10.7171C13.8771 10.7171 12.844 11.1425 11.9932 11.9932C11.1425 12.844 10.7171 13.8771 10.7171 15.0924C10.7171 16.3078 11.1425 17.3409 11.9932 18.1916C12.844 19.0424 13.8771 19.4678 15.0924 19.4678Z" fill="#8F2D56"/>
<circle cx="17" cy="17" r="16" stroke="#8F2D56" stroke-width="2"/>
</svg>
