<svg width="74" height="60" viewBox="0 0 74 60" fill="none" xmlns="http://www.w3.org/2000/svg">
<path d="M73.8462 7.104C71.7308 10.176 69.2308 12.768 66.25 14.976C66.3462 15.648 66.3462 16.32 66.3462 16.992C66.3462 36.96 51.1538 60 23.2692 60C14.7115 60 6.73077 57.408 0 53.184C1.15385 53.28 2.40385 53.472 3.65385 53.472C10.7692 53.472 17.2115 50.976 22.4038 46.944C15.6731 46.848 10.1923 42.336 8.26923 36.384C9.13462 36.576 10.1923 36.672 11.1538 36.672C12.5 36.672 13.9423 36.48 15.1923 36.096C8.17308 34.752 2.98077 28.704 2.98077 21.408V21.216C5.09615 22.272 7.30769 22.944 9.80769 23.04C5.76923 20.256 3.07692 15.648 3.07692 10.464C3.07692 7.68 3.84615 5.088 5.09615 2.784C12.5962 11.904 23.75 18.048 36.3462 18.624C36.1538 17.568 35.9615 16.32 35.9615 15.168C35.9615 6.816 42.6923 0 51.0577 0C55.4808 0 59.4231 1.92 62.2115 4.896C65.6731 4.224 68.8462 2.88 71.7308 1.152C70.6731 4.704 68.2692 7.776 65.1923 9.6C68.2692 9.216 71.0577 8.352 73.8462 7.104Z" fill="#8F2D56"/>
</svg>
